<mxfile host="65bd71144e">
    <diagram id="Ex4e78yeorhTX2S8gjIM" name="ページ1">
        <mxGraphModel dx="836" dy="719" grid="1" gridSize="10" guides="1" tooltips="1" connect="1" arrows="1" fold="1" page="1" pageScale="1" pageWidth="827" pageHeight="1169" math="0" shadow="0">
            <root>
                <mxCell id="0"/>
                <mxCell id="1" parent="0"/>
                <mxCell id="2" value="いくつかの宿場町を経由して、コンフューズヘイムに向かいます。" style="whiteSpace=wrap;html=1;" parent="1" vertex="1">
                    <mxGeometry x="160" y="280" width="120" height="60" as="geometry"/>
                </mxCell>
                <mxCell id="3" value="誰の所有物でもない自由な町のことをファンクションヘイムと呼びます。" style="whiteSpace=wrap;html=1;" parent="1" vertex="1">
                    <mxGeometry x="160" y="170" width="120" height="60" as="geometry"/>
                </mxCell>
                <mxCell id="4" value="宿場町はたいていファンクションヘイムです。" style="whiteSpace=wrap;html=1;" parent="1" vertex="1">
                    <mxGeometry x="320" y="170" width="120" height="60" as="geometry"/>
                </mxCell>
                <mxCell id="6" value="浪人たちが住んでいます。" style="whiteSpace=wrap;html=1;" parent="1" vertex="1">
                    <mxGeometry x="480" y="170" width="120" height="60" as="geometry"/>
                </mxCell>
                <mxCell id="7" value="浪人とは選ばれなかった人たちのことです。" style="whiteSpace=wrap;html=1;" parent="1" vertex="1">
                    <mxGeometry x="640" y="170" width="120" height="60" as="geometry"/>
                </mxCell>
                <mxCell id="8" value="たいていは宿場町で働いています。" style="whiteSpace=wrap;html=1;" parent="1" vertex="1">
                    <mxGeometry x="800" y="170" width="120" height="60" as="geometry"/>
                </mxCell>
                <mxCell id="9" value="私と朱雀はコンフューズヘイムに続く街道沿いのとある宿場町にやって来ました。" style="whiteSpace=wrap;html=1;" parent="1" vertex="1">
                    <mxGeometry x="320" y="275" width="140" height="70" as="geometry"/>
                </mxCell>
                <mxCell id="10" value="説明" style="rhombus;whiteSpace=wrap;html=1;" parent="1" vertex="1">
                    <mxGeometry x="40" y="160" width="80" height="80" as="geometry"/>
                </mxCell>
                <mxCell id="11" value="出来事" style="rhombus;whiteSpace=wrap;html=1;" parent="1" vertex="1">
                    <mxGeometry x="40" y="260" width="80" height="80" as="geometry"/>
                </mxCell>
                <mxCell id="12" value="今日はここで休むことにします。" style="whiteSpace=wrap;html=1;" parent="1" vertex="1">
                    <mxGeometry x="520" y="280" width="120" height="60" as="geometry"/>
                </mxCell>
                <mxCell id="13" value="" style="endArrow=none;html=1;" parent="1" edge="1">
                    <mxGeometry width="50" height="50" relative="1" as="geometry">
                        <mxPoint x="960" y="580" as="sourcePoint"/>
                        <mxPoint x="960" y="40" as="targetPoint"/>
                        <Array as="points">
                            <mxPoint x="960" y="410"/>
                        </Array>
                    </mxGeometry>
                </mxCell>
                <mxCell id="14" value="今日泊まる宿を探しながら町を歩いていると、セントベレス教団の二人の営業マンが仕事をしているシーンに遭遇しました。" style="whiteSpace=wrap;html=1;" parent="1" vertex="1">
                    <mxGeometry x="1000" y="270" width="150" height="80" as="geometry"/>
                </mxCell>
                <mxCell id="15" value="セリフ回し" style="rhombus;whiteSpace=wrap;html=1;" parent="1" vertex="1">
                    <mxGeometry x="40" y="380" width="80" height="80" as="geometry"/>
                </mxCell>
                <mxCell id="16" value="「こんにちは、セントベレス教団営業部のアルカテイルと」&lt;br&gt;「アシッドテイルです」&lt;br&gt;「「宜しくお願いします」」" style="whiteSpace=wrap;html=1;" parent="1" vertex="1">
                    <mxGeometry x="1000" y="375" width="150" height="90" as="geometry"/>
                </mxCell>
                <mxCell id="17" value="ピュアフレーム・ユピテル・カオス" style="text;html=1;align=center;verticalAlign=middle;resizable=0;points=[];autosize=1;strokeColor=none;fillColor=none;" parent="1" vertex="1">
                    <mxGeometry x="1560" y="735" width="220" height="30" as="geometry"/>
                </mxCell>
                <mxCell id="18" value="純粋な自我が、カオスに汚染されることにより、ユピテルが誕生する" style="text;html=1;align=center;verticalAlign=middle;resizable=0;points=[];autosize=1;strokeColor=none;fillColor=none;" parent="1" vertex="1">
                    <mxGeometry x="1560" y="765" width="400" height="30" as="geometry"/>
                </mxCell>
                <mxCell id="19" value="克人は、ワシを助ける。そしてワシを仲間にする" style="text;html=1;align=center;verticalAlign=middle;resizable=0;points=[];autosize=1;strokeColor=none;fillColor=none;" parent="1" vertex="1">
                    <mxGeometry x="1560" y="795" width="290" height="30" as="geometry"/>
                </mxCell>
                <mxCell id="20" value="セントレベス教団は、ワシを捕獲していた。克人はそれを助ける" style="text;html=1;align=center;verticalAlign=middle;resizable=0;points=[];autosize=1;strokeColor=none;fillColor=none;" parent="1" vertex="1">
                    <mxGeometry x="1562" y="825" width="370" height="30" as="geometry"/>
                </mxCell>
                <mxCell id="21" value="FUNCTION TOMORROW" style="text;html=1;align=center;verticalAlign=middle;resizable=0;points=[];autosize=1;strokeColor=none;fillColor=none;" parent="1" vertex="1">
                    <mxGeometry x="1562" y="705" width="160" height="30" as="geometry"/>
                </mxCell>
                <mxCell id="22" value="セントベレス教団とは、五年前にユグドラシルの管理者権限を獲得し、世界の運転手に就任した宗教団体です。" style="whiteSpace=wrap;html=1;" parent="1" vertex="1">
                    <mxGeometry x="1000" y="160" width="140" height="80" as="geometry"/>
                </mxCell>
                <mxCell id="23" value="いたる所で営業マンを見かけます。" style="whiteSpace=wrap;html=1;" parent="1" vertex="1">
                    <mxGeometry x="1160" y="170" width="120" height="60" as="geometry"/>
                </mxCell>
                <mxCell id="24" value="とある大手広告代理店のレポートによると、昨年、世の中に出稿された広告のうち、およそ30%がセントベレス教団絡みの広告だそうです。" style="whiteSpace=wrap;html=1;" parent="1" vertex="1">
                    <mxGeometry x="1320" y="158.75" width="160" height="82.5" as="geometry"/>
                </mxCell>
                <mxCell id="25" value="二人の営業マンは、人材をスカウトして去って行きました。" style="whiteSpace=wrap;html=1;" parent="1" vertex="1">
                    <mxGeometry x="1201" y="280" width="120" height="60" as="geometry"/>
                </mxCell>
                <mxCell id="26" value="「今、お時間大丈夫でしょうか？」" style="whiteSpace=wrap;html=1;" parent="1" vertex="1">
                    <mxGeometry x="1015" y="465" width="120" height="60" as="geometry"/>
                </mxCell>
                <mxCell id="27" value="「ありがとうございます」" style="whiteSpace=wrap;html=1;" parent="1" vertex="1">
                    <mxGeometry x="1015" y="585" width="120" height="60" as="geometry"/>
                </mxCell>
                <mxCell id="28" value="「現在、自己愛に関してお困りのことはありますか？」" style="whiteSpace=wrap;html=1;" parent="1" vertex="1">
                    <mxGeometry x="1015" y="645" width="120" height="60" as="geometry"/>
                </mxCell>
                <mxCell id="29" value="ないです" style="whiteSpace=wrap;html=1;" parent="1" vertex="1">
                    <mxGeometry x="1015" y="705" width="120" height="60" as="geometry"/>
                </mxCell>
                <mxCell id="30" value="「社会適応に関してお困りのことは？」" style="whiteSpace=wrap;html=1;" parent="1" vertex="1">
                    <mxGeometry x="1015" y="765" width="120" height="60" as="geometry"/>
                </mxCell>
                <mxCell id="31" value="ちょっとだけなら" style="whiteSpace=wrap;html=1;" parent="1" vertex="1">
                    <mxGeometry x="1015" y="525" width="120" height="60" as="geometry"/>
                </mxCell>
                <mxCell id="32" value="いえ、特にはーー" style="whiteSpace=wrap;html=1;" parent="1" vertex="1">
                    <mxGeometry x="1015" y="825" width="120" height="60" as="geometry"/>
                </mxCell>
                <mxCell id="33" value="「本当ですか？」" style="whiteSpace=wrap;html=1;" parent="1" vertex="1">
                    <mxGeometry x="1015" y="885" width="120" height="60" as="geometry"/>
                </mxCell>
                <mxCell id="34" value="あぁーー実は、仕事を探してます。先日まで引きこもっておりまして、それでーー" style="whiteSpace=wrap;html=1;" parent="1" vertex="1">
                    <mxGeometry x="1007.5" y="945" width="125" height="70" as="geometry"/>
                </mxCell>
                <mxCell id="35" value="「ふむんーーお名前を伺っても？」" style="whiteSpace=wrap;html=1;" parent="1" vertex="1">
                    <mxGeometry x="1015" y="1015" width="120" height="60" as="geometry"/>
                </mxCell>
                <mxCell id="36" value="パイモンです" style="whiteSpace=wrap;html=1;" parent="1" vertex="1">
                    <mxGeometry x="1015" y="1070" width="120" height="60" as="geometry"/>
                </mxCell>
                <mxCell id="37" value="「それじゃあパイモン、君をセントベレス教団七十二柱の一柱に任命します」" style="whiteSpace=wrap;html=1;" parent="1" vertex="1">
                    <mxGeometry x="1015" y="1130" width="120" height="60" as="geometry"/>
                </mxCell>
                <mxCell id="38" value="「よかったな、仕事が見つかったじゃないか」" style="whiteSpace=wrap;html=1;" parent="1" vertex="1">
                    <mxGeometry x="1015" y="1190" width="120" height="60" as="geometry"/>
                </mxCell>
                <mxCell id="39" value="あーーはい、ありがとうございます" style="whiteSpace=wrap;html=1;" parent="1" vertex="1">
                    <mxGeometry x="1015" y="1250" width="120" height="60" as="geometry"/>
                </mxCell>
                <mxCell id="40" value="「お時間いただきありがとうございました。それでは、次回は三日後にご連絡いたします」" style="whiteSpace=wrap;html=1;" parent="1" vertex="1">
                    <mxGeometry x="1007.5" y="1310" width="135" height="61" as="geometry"/>
                </mxCell>
                <mxCell id="42" value="" style="line;strokeWidth=2;direction=south;html=1;" parent="1" vertex="1">
                    <mxGeometry x="1550" y="120" width="10" height="490" as="geometry"/>
                </mxCell>
                <mxCell id="43" value="" style="whiteSpace=wrap;html=1;" parent="1" vertex="1">
                    <mxGeometry x="1600" y="170" width="120" height="60" as="geometry"/>
                </mxCell>
                <mxCell id="44" value="宿を決めて手続きを済ませました。食事は外で取ることにします。" style="whiteSpace=wrap;html=1;" parent="1" vertex="1">
                    <mxGeometry x="1600" y="280" width="120" height="60" as="geometry"/>
                </mxCell>
                <mxCell id="45" value="「一般的に、何者かになるには意志の強さが必要だと謂われる。しかし、ミメイシスの方がコスパ良く、タイパ良く何者かになれるんだ」" style="text;html=1;align=center;verticalAlign=middle;resizable=0;points=[];autosize=1;strokeColor=none;fillColor=none;" parent="1" vertex="1">
                    <mxGeometry x="1560" y="855" width="770" height="30" as="geometry"/>
                </mxCell>
                <mxCell id="46" value="「そもそも何故、何者かになりたいと願うのか。それは、終わりなき日常に終止符を打ち、新たな日常への移行を望むからである」" style="text;html=1;align=center;verticalAlign=middle;resizable=0;points=[];autosize=1;strokeColor=none;fillColor=none;" parent="1" vertex="1">
                    <mxGeometry x="1560" y="885" width="730" height="30" as="geometry"/>
                </mxCell>
                <mxCell id="47" value="「ミメイシスを与える存在を権力者と呼ぶ。権力者は、キズナグラム（ビーチ）で繋がる先の存在へ、感染させることができる」" style="text;html=1;align=center;verticalAlign=middle;resizable=0;points=[];autosize=1;strokeColor=none;fillColor=none;" parent="1" vertex="1">
                    <mxGeometry x="1560" y="915" width="720" height="30" as="geometry"/>
                </mxCell>
                <mxCell id="48" value="「理解できたか？　我らセントベレス教団に入会すれば、最強の権力者である教祖様と繋がり、特別な存在へと至ることができるのである」" style="text;html=1;align=center;verticalAlign=middle;resizable=0;points=[];autosize=1;strokeColor=none;fillColor=none;" parent="1" vertex="1">
                    <mxGeometry x="1560" y="945" width="780" height="30" as="geometry"/>
                </mxCell>
                <mxCell id="49" value="飯屋を探して街中を歩きます。" style="whiteSpace=wrap;html=1;" parent="1" vertex="1">
                    <mxGeometry x="1760" y="280" width="120" height="60" as="geometry"/>
                </mxCell>
                <mxCell id="50" value="" style="whiteSpace=wrap;html=1;" parent="1" vertex="1">
                    <mxGeometry x="160" y="390" width="120" height="60" as="geometry"/>
                </mxCell>
                <mxCell id="51" value="" style="whiteSpace=wrap;html=1;" parent="1" vertex="1">
                    <mxGeometry x="1920" y="280" width="120" height="60" as="geometry"/>
                </mxCell>
                <mxCell id="52" value="その様子を克人と朱雀は少し離れた場所から見ていました。" style="whiteSpace=wrap;html=1;" vertex="1" parent="1">
                    <mxGeometry x="1360" y="280" width="120" height="60" as="geometry"/>
                </mxCell>
                <mxCell id="53" value="「あれは何してるんだ？」" style="whiteSpace=wrap;html=1;" vertex="1" parent="1">
                    <mxGeometry x="1360" y="390" width="120" height="60" as="geometry"/>
                </mxCell>
                <mxCell id="54" value="&lt;div style=&quot;text-align: start;&quot;&gt;&lt;span style=&quot;background-color: initial;&quot;&gt;「見て判らないか？　ざぁ～こ。あれはセントベレス教団七十二柱の人材をスカウトしているんだよ」&lt;/span&gt;&lt;/div&gt;" style="whiteSpace=wrap;html=1;" vertex="1" parent="1">
                    <mxGeometry x="1325" y="450" width="190" height="90" as="geometry"/>
                </mxCell>
                <mxCell id="55" value="「何のために？」" style="whiteSpace=wrap;html=1;" vertex="1" parent="1">
                    <mxGeometry x="1360" y="540" width="120" height="60" as="geometry"/>
                </mxCell>
                <mxCell id="56" value="「――一年前の八大竜王の襲撃で欠員が出たらしくてな。その補填をするためだろうよ」" style="whiteSpace=wrap;html=1;" vertex="1" parent="1">
                    <mxGeometry x="1360" y="600" width="120" height="90" as="geometry"/>
                </mxCell>
                <mxCell id="57" value="「――何で彼奴をスカウトしたんだろうな」" style="whiteSpace=wrap;html=1;" vertex="1" parent="1">
                    <mxGeometry x="1360" y="690" width="120" height="60" as="geometry"/>
                </mxCell>
                <mxCell id="58" value="「さぁね。何か事情があるんだろうけど」" style="whiteSpace=wrap;html=1;" vertex="1" parent="1">
                    <mxGeometry x="1360" y="750" width="120" height="60" as="geometry"/>
                </mxCell>
            </root>
        </mxGraphModel>
    </diagram>
</mxfile>